<svg xmlns="http://www.w3.org/2000/svg" viewBox="0 0 24 24"><path class="a" d="M17.56,21.56a1,1,0,0,1-.52-.15l-5-3.08L7,21.41a1,1,0,0,1-1.49-1.08l1.37-5.75L2.35,10.74A1,1,0,0,1,2.92,9l5.89-.48,2.27-5.45a1,1,0,0,1,1.84,0l2.27,5.45L21.08,9a1,1,0,0,1,.57,1.75l-4.49,3.84,1.37,5.75a1,1,0,0,1-.38,1A1.06,1.06,0,0,1,17.56,21.56ZM12,16.16a1,1,0,0,1,.52.15L16,18.45l-1-4a1,1,0,0,1,.33-1l3.12-2.67-4.1-.33a1,1,0,0,1-.84-.62L12,6l-1.58,3.8a1,1,0,0,1-.84.62l-4.1.33L8.6,13.46a1,1,0,0,1,.33,1l-1,4,3.51-2.14A1,1,0,0,1,12,16.16Z"/></svg>